<svg id="Layer_1" data-name="Layer 1" xmlns="http://www.w3.org/2000/svg" xmlns:xlink="http://www.w3.org/1999/xlink" viewBox="0 0 179.14 129.74"><defs><style>.cls-1{fill:url(#linear-gradient);}.cls-2{fill:url(#linear-gradient-2);}.cls-3{fill:url(#linear-gradient-3);}.cls-4{fill:url(#linear-gradient-4);}.cls-5{fill:url(#linear-gradient-5);}.cls-6{fill:url(#linear-gradient-6);}.cls-7{fill:url(#linear-gradient-7);}</style><linearGradient id="linear-gradient" x1="167.46" y1="-293.84" x2="10.46" y2="-425.34" gradientTransform="matrix(1, 0, 0, -1, 0, -302.78)" gradientUnits="userSpaceOnUse"><stop offset="0" stop-color="#d9314a"/><stop offset="1" stop-color="#3b4864"/></linearGradient><linearGradient id="linear-gradient-2" x1="173.53" y1="-301.09" x2="16.53" y2="-432.59" xlink:href="#linear-gradient"/><linearGradient id="linear-gradient-3" x1="152.03" y1="-275.42" x2="-4.97" y2="-406.92" xlink:href="#linear-gradient"/><linearGradient id="linear-gradient-4" x1="159.93" y1="-284.85" x2="2.93" y2="-416.35" xlink:href="#linear-gradient"/><linearGradient id="linear-gradient-5" x1="167.83" y1="-294.29" x2="10.83" y2="-425.79" xlink:href="#linear-gradient"/><linearGradient id="linear-gradient-6" x1="181" y1="-310.02" x2="24" y2="-441.52" xlink:href="#linear-gradient"/><linearGradient id="linear-gradient-7" x1="170.58" y1="-297.57" x2="13.58" y2="-429.07" xlink:href="#linear-gradient"/></defs><title>Recommended</title><path class="cls-1" d="M96.35,129.74a4.55,4.55,0,0,1-3-1.18L77.87,114.78a3.19,3.19,0,0,0-2.13-.81H15.66A15.69,15.69,0,0,1,0,98.29V58.06A15.69,15.69,0,0,1,15.66,42.39H67.93a2.5,2.5,0,0,1,0,5H15.66A10.73,10.73,0,0,0,5,58.06V98.29A10.73,10.73,0,0,0,15.66,109H75.74a8.14,8.14,0,0,1,5.43,2.07L96,124.32l-.19-12.8V89.19a2.5,2.5,0,0,1,5,0v22.3l.2,13.58a4.54,4.54,0,0,1-2.69,4.25A4.63,4.63,0,0,1,96.35,129.74Z"/><path class="cls-2" d="M82.8,87.35a4.64,4.64,0,0,1-1.93-.42,4.54,4.54,0,0,1-2.68-4.25l.2-13.62V15.67A15.69,15.69,0,0,1,94.06,0h69.41a15.69,15.69,0,0,1,15.67,15.67V55.9a15.69,15.69,0,0,1-15.67,15.71H103.4a3.2,3.2,0,0,0-2.13.81L85.84,86.17A4.55,4.55,0,0,1,82.8,87.35ZM94.06,5A10.73,10.73,0,0,0,83.34,15.67V69.09l-.19,12.83L98,68.69a8.14,8.14,0,0,1,5.43-2.08h60.07a10.73,10.73,0,0,0,10.72-10.72V15.67A10.73,10.73,0,0,0,163.47,5Z"/><circle class="cls-3" cx="26.45" cy="77.82" r="2.79"/><circle class="cls-4" cx="45.62" cy="77.82" r="2.79"/><circle class="cls-5" cx="64.78" cy="77.82" r="2.79"/><circle class="cls-6" cx="130.87" cy="49.23" r="2.79"/><path class="cls-7" d="M131,42.29a2,2,0,0,1-2-2,14.46,14.46,0,0,1,1.45-5.86c.8-1.6,2.38-2.55,4-3.55,2.76-1.67,4.44-2.87,4.44-5.49,0-2.35-1.48-6.07-5.45-6.07-2.85,0-4.9.7-6.09,2.07a6.09,6.09,0,0,0-1.25,4.34,2,2,0,0,1-4,.57,10.17,10.17,0,0,1,2.18-7.53c2-2.29,5-3.45,9.11-3.45,6.14,0,9.45,5.19,9.45,10.07,0,5.07-3.68,7.29-6.37,8.91A8.11,8.11,0,0,0,134,36.22a10.44,10.44,0,0,0-1,4.07A2,2,0,0,1,131,42.29Z"/></svg>