<?xml version="1.0" encoding="utf-8"?>
<!-- Generator: Adobe Illustrator 21.1.0, SVG Export Plug-In . SVG Version: 6.00 Build 0)  -->
<svg version="1.1" id="Layer_1" xmlns="http://www.w3.org/2000/svg" xmlns:xlink="http://www.w3.org/1999/xlink" x="0px" y="0px"
	 viewBox="0 0 180 180" style="enable-background:new 0 0 180 180;" xml:space="preserve">
<style type="text/css">
	.st0{fill:url(#SVGID_1_);}
	.st1{fill:url(#SVGID_2_);}
	.st2{fill:url(#SVGID_3_);}
	.st3{fill:url(#SVGID_4_);}
	.st4{fill:url(#SVGID_5_);}
	.st5{fill:url(#SVGID_6_);}
	.st6{fill:url(#SVGID_7_);}
	.st7{fill:url(#SVGID_8_);}
	.st8{fill:url(#SVGID_9_);}
	.st9{fill:url(#SVGID_10_);}
	.st10{fill:url(#SVGID_11_);}
	.st11{fill:url(#SVGID_12_);}
	.st12{fill:url(#SVGID_13_);}
</style>
<title>Experienced</title>
<linearGradient id="SVGID_1_" gradientUnits="userSpaceOnUse" x1="125.0703" y1="175.7356" x2="-12.669" y2="5.9639" gradientTransform="matrix(1 0 0 -1 0 182)">
	<stop  offset="0" style="stop-color:#D9314A"/>
	<stop  offset="1" style="stop-color:#3B4864"/>
</linearGradient>
<path class="st0" d="M90.7,97.7c-3.1,0-6.2-0.5-9.2-1.4c-3.4-1.1-9.9-5.5-13.1-7.7c-3.4,2.1-10.7,6.6-14.2,7.7
	c-3.2,1-6.6,1.4-10,1.3c-1.6-0.1-2.9-1.4-2.9-3V56.9c0-1.1,0.9-1.9,1.9-1.9s1.9,0.9,1.9,1.9c0,0,0,0,0,0v36.7c2.7,0,5.3-0.3,7.9-1.1
	c2.7-0.8,8.9-4.5,13.8-7.6c1-0.7,2.4-0.6,3.4,0.1c4.4,3.1,10,6.7,12.4,7.5c2.9,0.9,6,1.3,9.1,1.2v-35c0-1.1,0.9-1.9,1.9-1.9
	c1.1,0,1.9,0.9,1.9,1.9v35.8c0,1.6-1.2,2.9-2.8,3C92.3,97.6,91.6,97.7,90.7,97.7z M69,88.3L69,88.3z"/>
<linearGradient id="SVGID_2_" gradientUnits="userSpaceOnUse" x1="143.1814" y1="161.0483" x2="5.4421" y2="-8.7233" gradientTransform="matrix(1 0 0 -1 0 182)">
	<stop  offset="0" style="stop-color:#D9314A"/>
	<stop  offset="1" style="stop-color:#3B4864"/>
</linearGradient>
<path class="st1" d="M68.6,154c-0.7,0-1.4-0.3-2-0.7l-24.1-21.2c-0.7-0.6-1.1-1.4-1.1-2.3v-34c0-1.1,0.9-1.9,1.9-1.9
	c1.1,0,1.9,0.9,1.9,1.9v33.7l23.3,20.4l23.3-20.4V95.8c0-1.1,0.9-1.9,1.9-1.9c1.1,0,1.9,0.9,1.9,1.9v34.1c0,0.9-0.4,1.7-1.1,2.3
	l-24,21.2C70,153.7,69.3,154,68.6,154z"/>
<linearGradient id="SVGID_3_" gradientUnits="userSpaceOnUse" x1="151.6357" y1="154.1885" x2="13.8965" y2="-15.5831" gradientTransform="matrix(1 0 0 -1 0 182)">
	<stop  offset="0" style="stop-color:#D9314A"/>
	<stop  offset="1" style="stop-color:#3B4864"/>
</linearGradient>
<path class="st2" d="M68.6,154.4c-1.1,0-1.9-0.9-1.9-1.9l0,0V108c0-1.1,0.9-1.9,1.9-1.9c1.1,0,1.9,0.9,1.9,1.9c0,0,0,0,0,0v44.5
	C70.5,153.5,69.6,154.4,68.6,154.4z"/>
<linearGradient id="SVGID_4_" gradientUnits="userSpaceOnUse" x1="135.9417" y1="166.9146" x2="-1.7975" y2="-2.8571" gradientTransform="matrix(1 0 0 -1 0 182)">
	<stop  offset="0" style="stop-color:#D9314A"/>
	<stop  offset="1" style="stop-color:#3B4864"/>
</linearGradient>
<path class="st3" d="M68.6,102.6c-1.1,0-1.9-0.9-1.9-1.9v0v-5.1c0-1.1,0.9-1.9,1.9-1.9c1.1,0,1.9,0.9,1.9,1.9c0,0,0,0,0,0v5.1
	C70.5,101.7,69.6,102.6,68.6,102.6z"/>
<linearGradient id="SVGID_5_" gradientUnits="userSpaceOnUse" x1="158.723" y1="148.4355" x2="20.9837" y2="-21.3362" gradientTransform="matrix(1 0 0 -1 0 182)">
	<stop  offset="0" style="stop-color:#D9314A"/>
	<stop  offset="1" style="stop-color:#3B4864"/>
</linearGradient>
<path class="st4" d="M81.2,142.5c-1.1,0-1.9-0.9-1.9-1.9l0,0v-22.8c0-1.1,0.9-1.9,1.9-1.9c1.1,0,1.9,0.9,1.9,1.9c0,0,0,0,0,0v22.8
	C83.1,141.6,82.2,142.5,81.2,142.5z"/>
<linearGradient id="SVGID_6_" gradientUnits="userSpaceOnUse" x1="142.7128" y1="161.4251" x2="4.9736" y2="-8.3466" gradientTransform="matrix(1 0 0 -1 0 182)">
	<stop  offset="0" style="stop-color:#D9314A"/>
	<stop  offset="1" style="stop-color:#3B4864"/>
</linearGradient>
<path class="st5" d="M55.1,141.6c-1.1,0-1.9-0.9-1.9-1.9l0,0v-22.2c0-1.1,0.9-1.9,1.9-1.9c1.1,0,1.9,0.9,1.9,1.9c0,0,0,0,0,0v22.2
	C57,140.7,56.2,141.6,55.1,141.6z"/>
<linearGradient id="SVGID_7_" gradientUnits="userSpaceOnUse" x1="160.4387" y1="147.0375" x2="22.6994" y2="-22.7342" gradientTransform="matrix(1 0 0 -1 0 182)">
	<stop  offset="0" style="stop-color:#D9314A"/>
	<stop  offset="1" style="stop-color:#3B4864"/>
</linearGradient>
<path class="st6" d="M68.6,179.2c-27.9,0-45.1-6.7-48.3-8c-1.1-0.5-1.8-1.6-1.8-2.8v-36.8c0.1-12.6,10.3-22.8,22.9-22.7h1.9
	c1-0.1,1.9,0.7,2,1.7c0.1,1-0.7,1.9-1.7,2c-0.1,0-0.2,0-0.3,0h-1.9c-10.5,0-19.1,8.5-19.1,19v36.4c4,1.6,20.3,7.5,46.3,7.5
	c26.8,0,44.7-5.9,49.1-7.6v-36.3c-0.1-10.5-8.7-19-19.2-19c0,0,0,0,0,0h-4.8c-1-0.1-1.8-1-1.7-2c0.1-0.9,0.8-1.7,1.7-1.7h4.8
	c12.6,0,22.8,10.1,22.9,22.7v36.8c0,1.2-0.7,2.3-1.9,2.8C116,172.5,97.2,179.2,68.6,179.2z"/>
<linearGradient id="SVGID_8_" gradientUnits="userSpaceOnUse" x1="117.6236" y1="181.7781" x2="-20.1157" y2="12.0064" gradientTransform="matrix(1 0 0 -1 0 182)">
	<stop  offset="0" style="stop-color:#D9314A"/>
	<stop  offset="1" style="stop-color:#3B4864"/>
</linearGradient>
<path class="st7" d="M105.3,70.2c-1.1,0-1.9-0.8-1.9-1.9c0-1,0.7-1.8,1.7-1.9l16.2-1.9L67.5,53.9l-55.8,7.8l21.1,3.7
	c1,0.2,1.7,1.3,1.4,2.3c-0.2,0.9-1.1,1.6-2.1,1.5L2,63.9c-1.3-0.2-2.2-1.5-1.9-2.8c0.2-1,1-1.8,1.9-1.9L67.5,50l63.7,12.4
	c1.3,0.2,2.2,1.5,1.9,2.8c-0.2,1-1.1,1.8-2.1,1.9l-25.4,3L105.3,70.2z M130.4,66.2L130.4,66.2z M130.5,63.3L130.5,63.3z M2.6,60.1
	L2.6,60.1z"/>
<linearGradient id="SVGID_9_" gradientUnits="userSpaceOnUse" x1="86.1932" y1="207.2752" x2="-51.546" y2="37.5035" gradientTransform="matrix(1 0 0 -1 0 182)">
	<stop  offset="0" style="stop-color:#D9314A"/>
	<stop  offset="1" style="stop-color:#3B4864"/>
</linearGradient>
<path class="st8" d="M2.3,63c-1.1,0-1.9-0.9-1.9-1.9c0-0.7,0.4-1.4,1-1.7l50.2-27.7c0.9-0.5,2.1-0.1,2.6,0.8c0.5,0.9,0.1,2-0.7,2.5
	L3.2,62.7C3,62.9,2.6,63,2.3,63z"/>
<linearGradient id="SVGID_10_" gradientUnits="userSpaceOnUse" x1="132.3422" y1="169.8412" x2="-5.3971" y2="6.953478e-02" gradientTransform="matrix(1 0 0 -1 0 182)">
	<stop  offset="0" style="stop-color:#D9314A"/>
	<stop  offset="1" style="stop-color:#3B4864"/>
</linearGradient>
<path class="st9" d="M132,66.7c-0.4,0-0.8-0.1-1.1-0.3l-26.3-17.2L90.7,36.6v-9.1l-8.9-4.7c-0.9-0.5-1.3-1.7-0.8-2.6
	c0.5-0.9,1.7-1.3,2.6-0.8l0,0l11,5.7v9.7l12.5,11.4l26,16.9c0.9,0.6,1.1,1.8,0.6,2.7C133.2,66.4,132.6,66.7,132,66.7L132,66.7z"/>
<linearGradient id="SVGID_11_" gradientUnits="userSpaceOnUse" x1="121.7047" y1="178.4728" x2="-16.0346" y2="8.7012" gradientTransform="matrix(1 0 0 -1 0 182)">
	<stop  offset="0" style="stop-color:#D9314A"/>
	<stop  offset="1" style="stop-color:#3B4864"/>
</linearGradient>
<path class="st10" d="M137.7,55.2c-0.6,0-1.1-0.2-1.5-0.6L124,43.7c-0.3-0.3-0.7-0.3-1.1-0.1l-15.4,6.6c-0.9,0.5-2.1,0.2-2.6-0.8
	c-0.5-0.9-0.2-2.1,0.8-2.6c0.1-0.1,0.2-0.1,0.3-0.1l15.3-6.6c1.8-0.8,3.8-0.5,5.3,0.8l2.9,2.6l-6-9c-0.2-0.4-0.7-0.5-1.1-0.4
	l-10.9,2.6c-2.6,0.6-5.2-0.9-5.8-3.5c-0.2-0.8-0.2-1.6,0-2.4l2.1-8c0.1-0.4-0.1-0.8-0.4-1.1L79,4.2c-0.3-0.2-0.6-0.2-0.9-0.1
	l-17,7.6c-0.2,0.1-0.4,0.3-0.5,0.5l-13.6,26c-0.5,0.9-1.7,1.3-2.6,0.8c-0.9-0.5-1.3-1.7-0.8-2.6l13.6-26c0.5-1,1.3-1.8,2.3-2.3
	l17-7.6C78,0,79.6,0.1,81,0.9l28.5,17.4c1.8,1.1,2.7,3.3,2.1,5.3l-2.1,8c-0.1,0.5,0.2,1,0.7,1.2c0.2,0,0.3,0,0.5,0l10.9-2.6
	c2-0.5,4,0.3,5.1,2l12.9,19.3c0.7,1.1,0.4,2.5-0.6,3.2C138.6,55.1,138.2,55.2,137.7,55.2L137.7,55.2z"/>
<linearGradient id="SVGID_12_" gradientUnits="userSpaceOnUse" x1="107.4455" y1="190.0338" x2="-30.2938" y2="20.2621" gradientTransform="matrix(1 0 0 -1 0 182)">
	<stop  offset="0" style="stop-color:#D9314A"/>
	<stop  offset="1" style="stop-color:#3B4864"/>
</linearGradient>
<path class="st11" d="M28.8,115.1h-0.2c-1.1-0.1-1.8-1-1.7-2.1c0,0,0,0,0,0l5.7-55.6c0.1-1.1,1.1-1.8,2.1-1.7c1,0.1,1.8,1,1.7,2.1
	l-5.7,55.7C30.6,114.4,29.8,115.1,28.8,115.1z"/>
<linearGradient id="SVGID_13_" gradientUnits="userSpaceOnUse" x1="154.0876" y1="152.2018" x2="16.3483" y2="-17.5699" gradientTransform="matrix(1 0 0 -1 0 182)">
	<stop  offset="0" style="stop-color:#D9314A"/>
	<stop  offset="1" style="stop-color:#3B4864"/>
</linearGradient>
<path class="st12" d="M112.1,116.2c-0.9,0-1.7-0.7-1.9-1.6l-8.9-54.5c-0.2-1,0.5-2.1,1.5-2.3c1-0.2,2.1,0.5,2.3,1.5
	c0,0.1,0,0.1,0,0.2L114,114c0.2,1-0.5,2-1.6,2.2c0,0,0,0,0,0L112.1,116.2z"/>
</svg>
