<?xml version="1.0" encoding="utf-8"?>
<!-- Generator: Adobe Illustrator 21.1.0, SVG Export Plug-In . SVG Version: 6.00 Build 0)  -->
<svg version="1.1" id="Layer_1" xmlns="http://www.w3.org/2000/svg" xmlns:xlink="http://www.w3.org/1999/xlink" x="0px" y="0px"
	 viewBox="0 0 180 180" style="enable-background:new 0 0 180 180;" xml:space="preserve">
<style type="text/css">
	.st0{fill:url(#SVGID_1_);}
	.st1{fill:url(#SVGID_2_);}
	.st2{fill:url(#SVGID_3_);}
	.st3{fill:url(#SVGID_4_);}
	.st4{fill:url(#SVGID_5_);}
	.st5{fill:url(#SVGID_6_);}
	.st6{fill:url(#SVGID_7_);}
</style>
<title>Kreative</title>
<linearGradient id="SVGID_1_" gradientUnits="userSpaceOnUse" x1="93.8339" y1="173.0121" x2="-28.8361" y2="42.3521" gradientTransform="matrix(1 0 0 -1 0 182)">
	<stop  offset="0" style="stop-color:#D9314A"/>
	<stop  offset="1" style="stop-color:#3B4864"/>
</linearGradient>
<path class="st0" d="M76,81.7H51.3c-2.8,0-5.1-2.2-5.3-5c-0.4-7-1.7-12.4-3.5-14.5c-7-8-13.3-16.2-13.3-27.1
	c0-19,15.4-34.4,34.3-34.4c0.1,0,0.3,0,0.4,0C80.6,1,95.1,13.7,97.6,30.4l0,0c1.6,10.7-2.1,21-11,30.4c-2.4,2.5-4.3,8.5-5.2,16.3
	C81,79.7,78.7,81.7,76,81.7z M63.6,4.8c-16.8,0-30.4,13.6-30.4,30.4l0,0c0,9.5,5.6,16.7,12.3,24.5c3.1,3.6,4.1,11.1,4.5,16.9
	c0,0.7,0.6,1.2,1.3,1.2H76c0.7,0,1.2-0.5,1.3-1.2c0.8-6.2,2.4-14.5,6.3-18.6c8-8.5,11.4-17.5,9.9-27l0,0
	C91.4,16.2,78.8,5.2,63.9,4.8H63.6z"/>
<linearGradient id="SVGID_2_" gradientUnits="userSpaceOnUse" x1="101.4594" y1="165.8551" x2="-21.2107" y2="35.1852" gradientTransform="matrix(1 0 0 -1 0 182)">
	<stop  offset="0" style="stop-color:#D9314A"/>
	<stop  offset="1" style="stop-color:#3B4864"/>
</linearGradient>
<path class="st1" d="M59.8,75.2c-1,0-1.8-0.6-2-1.6l-6-28.1c-0.4-1.8,0.8-3.5,2.5-3.9c0.8-0.2,1.6,0,2.3,0.3c4.7,2.6,6.5,2.9,7,3
	c0.9,0.1,3.5-0.6,8.1-2.6c1.7-0.8,3.6,0,4.4,1.6c0.3,0.6,0.4,1.3,0.2,2l-5.2,27.5c-0.2,1.1-1.3,1.8-2.4,1.5c-1-0.2-1.7-1.2-1.6-2.3
	l4.9-26.3c-6.2,2.6-8.1,2.4-8.7,2.4c-0.7,0-2.4-0.2-7.3-2.7l5.6,26.6c0.2,1.1-0.5,2.1-1.5,2.4C60.1,75.1,60,75.2,59.8,75.2z"/>
<linearGradient id="SVGID_3_" gradientUnits="userSpaceOnUse" x1="118.7065" y1="149.6697" x2="-3.9636" y2="18.9997" gradientTransform="matrix(1 0 0 -1 0 182)">
	<stop  offset="0" style="stop-color:#D9314A"/>
	<stop  offset="1" style="stop-color:#3B4864"/>
</linearGradient>
<path class="st2" d="M77.2,92.1H51.8c-1.1,0-2-0.9-2-2s0.9-2,2-2h25.3c1.1,0,2,0.9,2,2S78.3,92.1,77.2,92.1z"/>
<linearGradient id="SVGID_4_" gradientUnits="userSpaceOnUse" x1="129.6266" y1="139.4071" x2="6.9566" y2="8.7471" gradientTransform="matrix(1 0 0 -1 0 182)">
	<stop  offset="0" style="stop-color:#D9314A"/>
	<stop  offset="1" style="stop-color:#3B4864"/>
</linearGradient>
<path class="st3" d="M61.5,179.6H17.5c-3.5,0.1-6.5-2.7-6.6-6.3v-47.5c0.1-1.1,1.1-2,2.2-1.9c1,0.1,1.9,0.9,1.9,1.9v47.5
	c0.1,1.3,1.2,2.2,2.4,2.1h43.9c1.2,0.1,2.3-0.9,2.4-2.1v-70.8H15c-1.1,0.1-2.1-0.8-2.2-1.9s0.8-2.1,1.9-2.2c0.1,0,0.2,0,0.3,0H68v75
	C67.9,176.9,65,179.7,61.5,179.6z"/>
<linearGradient id="SVGID_5_" gradientUnits="userSpaceOnUse" x1="112.8799" y1="155.1259" x2="-9.7801" y2="24.4659" gradientTransform="matrix(1 0 0 -1 0 182)">
	<stop  offset="0" style="stop-color:#D9314A"/>
	<stop  offset="1" style="stop-color:#3B4864"/>
</linearGradient>
<path class="st4" d="M49.2,127.4H5.1c-1.8,0-3.4-0.9-4.4-2.3c-0.9-1.4-1-3.1-0.3-4.6L9.1,102c1.1-2.3,3.5-3.7,6-3.7h52l-11.9,25.4
	C54.1,126,51.8,127.5,49.2,127.4z M15.1,102.5c-0.9,0-1.8,0.5-2.2,1.3l-8.7,18.5c-0.1,0.2-0.1,0.4,0,0.6c0.2,0.3,0.5,0.4,0.9,0.4
	h44.1c0.9,0,1.8-0.5,2.2-1.3l9.1-19.5L15.1,102.5z"/>
<linearGradient id="SVGID_6_" gradientUnits="userSpaceOnUse" x1="146.2737" y1="123.7823" x2="23.6037" y2="-6.8777" gradientTransform="matrix(1 0 0 -1 0 182)">
	<stop  offset="0" style="stop-color:#D9314A"/>
	<stop  offset="1" style="stop-color:#3B4864"/>
</linearGradient>
<path class="st5" d="M124.4,127.4H80.8c-2.5,0-4.8-1.4-5.8-3.6L63.1,98.3h52.1c2.5,0,4.8,1.4,5.9,3.6l8.4,18
	c0.7,1.6,0.6,3.4-0.3,4.9C128.1,126.5,126.3,127.4,124.4,127.4z M69.6,102.5l9.2,19.5c0.4,0.8,1.2,1.2,2.1,1.2h43.5
	c0.5,0,1-0.2,1.2-0.6c0.2-0.3,0.2-0.6,0.1-0.9l-8.4-18c-0.4-0.8-1.2-1.2-2.1-1.2L69.6,102.5z"/>
<linearGradient id="SVGID_7_" gradientUnits="userSpaceOnUse" x1="180.2213" y1="91.917" x2="57.5513" y2="-38.753" gradientTransform="matrix(1 0 0 -1 0 182)">
	<stop  offset="0" style="stop-color:#D9314A"/>
	<stop  offset="1" style="stop-color:#3B4864"/>
</linearGradient>
<path class="st6" d="M120.6,179.2H77.1c-1.1-0.1-2-1.1-1.9-2.2c0.1-1,0.9-1.9,1.9-1.9h39.4V134c0.1-1.1,1.1-2,2.2-1.9
	c1,0.1,1.9,0.9,1.9,1.9L120.6,179.2z"/>
</svg>
