<svg id="Layer_1" data-name="Layer 1" xmlns="http://www.w3.org/2000/svg" xmlns:xlink="http://www.w3.org/1999/xlink"
     viewBox="0 0 178 166.07">
    <defs>
        <style>
            .cls-1{fill:url(#linear-gradient);}.cls-2{fill:url(#linear-gradient-2);}.cls-3{fill:url(#linear-gradient-3);}.cls-4{fill:url(#linear-gradient-4);}.cls-5{fill:url(#linear-gradient-5);}.cls-6{fill:url(#linear-gradient-6);}.cls-7{fill:url(#linear-gradient-7);}.cls-8{fill:url(#linear-gradient-8);}.cls-9{fill:url(#linear-gradient-9);}.cls-10{fill:url(#linear-gradient-10);}.cls-11{fill:url(#linear-gradient-11);}.cls-12{fill:url(#linear-gradient-12);}.cls-13{fill:url(#linear-gradient-13);}.cls-14{fill:url(#linear-gradient-14);}.cls-15{fill:url(#linear-gradient-15);}.cls-16{fill:url(#linear-gradient-16);}.cls-17{fill:url(#linear-gradient-17);}.cls-18{fill:url(#linear-gradient-18);}.cls-19{fill:url(#linear-gradient-19);}
        </style>
        <linearGradient id="linear-gradient" x1="198.92" y1="155.16" x2="45.92" y2="-10.84"
                        gradientTransform="matrix(1, 0, 0, -1, 0, 186.87)" gradientUnits="userSpaceOnUse">
            <stop offset="0" stop-color="#d9314a"/>
            <stop offset="1" stop-color="#3b4864"/>
        </linearGradient>
        <linearGradient id="linear-gradient-2" x1="183.58" y1="169.3" x2="30.58" y2="3.3"
                        xlink:href="#linear-gradient"/>
        <linearGradient id="linear-gradient-3" x1="203.72" y1="150.74" x2="50.72" y2="-15.26"
                        xlink:href="#linear-gradient"/>
        <linearGradient id="linear-gradient-4" x1="188.68" y1="164.6" x2="35.68" y2="-1.4"
                        xlink:href="#linear-gradient"/>
        <linearGradient id="linear-gradient-5" x1="163.43" y1="187.87" x2="10.43" y2="21.87"
                        xlink:href="#linear-gradient"/>
        <linearGradient id="linear-gradient-6" x1="186.55" y1="166.57" x2="33.55" y2="0.57"
                        xlink:href="#linear-gradient"/>
        <linearGradient id="linear-gradient-7" x1="118.56" y1="229.23" x2="-34.44" y2="63.23"
                        xlink:href="#linear-gradient"/>
        <linearGradient id="linear-gradient-8" x1="168.67" y1="183.05" x2="15.67" y2="17.05"
                        xlink:href="#linear-gradient"/>
        <linearGradient id="linear-gradient-9" x1="171.89" y1="180.08" x2="18.89" y2="14.08"
                        xlink:href="#linear-gradient"/>
        <linearGradient id="linear-gradient-10" x1="159.11" y1="191.86" x2="6.11" y2="25.86"
                        xlink:href="#linear-gradient"/>
        <linearGradient id="linear-gradient-11" x1="164.33" y1="187.04" x2="11.33" y2="21.04"
                        xlink:href="#linear-gradient"/>
        <linearGradient id="linear-gradient-12" x1="160.33" y1="190.73" x2="7.33" y2="24.73"
                        xlink:href="#linear-gradient"/>
        <linearGradient id="linear-gradient-13" x1="185.28" y1="167.74" x2="32.28" y2="1.74"
                        xlink:href="#linear-gradient"/>
        <linearGradient id="linear-gradient-14" x1="196.46" y1="157.43" x2="43.46" y2="-8.57"
                        xlink:href="#linear-gradient"/>
        <linearGradient id="linear-gradient-15" x1="134.31" y1="214.72" x2="-18.69" y2="48.72"
                        xlink:href="#linear-gradient"/>
        <linearGradient id="linear-gradient-16" x1="136.17" y1="213" x2="-16.83" y2="47" xlink:href="#linear-gradient"/>
        <linearGradient id="linear-gradient-17" x1="147.16" y1="202.87" x2="-5.84" y2="36.87"
                        xlink:href="#linear-gradient"/>
        <linearGradient id="linear-gradient-18" x1="138.06" y1="211.25" x2="-14.94" y2="45.25"
                        xlink:href="#linear-gradient"/>
        <linearGradient id="linear-gradient-19" x1="123.14" y1="225.01" x2="-29.86" y2="59.01"
                        xlink:href="#linear-gradient"/>
    </defs>
    <title>Recommended</title>
    <path class="cls-1" d="M97.49,165.66h-24V143.89h24Zm-20-4h16V147.89h-16Z"/>
    <rect class="cls-2" x="3.59" y="118.07" width="171.03" height="4"/>
    <path class="cls-3" d="M135,166.07H36.59a2,2,0,0,1,0-4H135a2,2,0,0,1,0,4Z"/>
    <circle class="cls-4" cx="88.05" cy="131.45" r="2.5"/>
    <path class="cls-5"
          d="M163.37,146.65H14.63A14.65,14.65,0,0,1,0,132V27.52A14.65,14.65,0,0,1,14.63,12.85h0l31.23-.2h0a2,2,0,0,1,0,4l-31.25.2A10.64,10.64,0,0,0,4,27.52H4V132a10.64,10.64,0,0,0,10.63,10.63H163.37A10.64,10.64,0,0,0,174,132V27.52a10.64,10.64,0,0,0-10.63-10.63h-32.5a2,2,0,0,1,0-4h32.5A14.65,14.65,0,0,1,178,27.52V132A14.65,14.65,0,0,1,163.37,146.65Z"/>
    <path class="cls-6"
          d="M163.37,111.65a2,2,0,0,1-2-2v-78c0-.79-.91-1.47-2-1.47l-38.75-.53a2,2,0,0,1,0-4h0l38.72.53a5.74,5.74,0,0,1,6,5.47h0v78A2,2,0,0,1,163.37,111.65Z"/>
    <path class="cls-7"
          d="M15.33,110.65a2,2,0,0,1-2-2V32.17a6,6,0,0,1,6-6L56,26.58a2,2,0,0,1,0,4l-36.65-.39a2,2,0,0,0-2,2v76.48a2,2,0,0,1-2,2Z"/>
    <path class="cls-8" d="M87.84,113.74a2,2,0,0,1-2-2V71.3a2,2,0,0,1,4,0v40.45A2,2,0,0,1,87.84,113.74Z"/>
    <path class="cls-9" d="M99.65,105.52a2,2,0,0,1-2-2V66.83a2,2,0,0,1,4,0v36.69A2,2,0,0,1,99.65,105.52Z"/>
    <path class="cls-10" d="M76,105.52a2,2,0,0,1-2-2V66.83a2,2,0,0,1,4,0v36.69A2,2,0,0,1,76,105.52Z"/>
    <path class="cls-11"
          d="M62.61,112.94a2,2,0,0,1-2-2A13.43,13.43,0,0,1,74,97.52a13.64,13.64,0,0,1,2,.15,2,2,0,1,1-.59,4A9.42,9.42,0,0,0,64.59,111,2,2,0,0,1,62.61,112.94Z"/>
    <path class="cls-12"
          d="M47,120.15a2,2,0,0,1-2-2,13.42,13.42,0,0,1,18.36-12.47,2,2,0,0,1-1.45,3.73h0A9.42,9.42,0,0,0,49,118.15,2,2,0,0,1,47,120.15Z"/>
    <path class="cls-13"
          d="M111.76,112.94a2,2,0,0,1-2-2,9.42,9.42,0,0,0-9.41-9.41,2.7,2.7,0,0,1-.73-.09,2,2,0,0,1,.17-3.92h.15a2,2,0,0,1,.83,0,13.43,13.43,0,0,1,13,13.4,2,2,0,0,1-2,2Z"/>
    <path class="cls-14"
          d="M127.38,120.15a2,2,0,0,1-2-2,9.42,9.42,0,0,0-12.88-8.75,2,2,0,0,1-1.47-3.72,13.42,13.42,0,0,1,18.36,12.47,2,2,0,0,1-2,2Z"/>
    <path class="cls-15"
          d="M88.19,63.41,87,62.68c-.68-.43-16.65-10.66-24.71-20-4.08-4.71-10.8-14.06-10-23.8.44-5.37,3.06-10.1,7.81-14,4.39-3.66,9.11-5.25,14-4.74,6.54.68,11.69,5,14.2,7.48C90.73,5.08,95.67.94,102.06.28c5.07-.53,10,1.22,14.54,5.18a19,19,0,0,1,7,13.69c.49,9-5.35,18.68-10.49,24.19h0c-8.63,9.25-23.2,18.87-23.82,19.27ZM72.39,4.26a14.87,14.87,0,0,0-9.57,3.85c-3.84,3.2-6,7-6.3,11.15-.67,8.2,5.35,16.48,9,20.69C72,47.39,84.33,55.83,88.15,58.36c3.62-2.46,15-10.43,21.91-17.86,1-1.09,9.91-10.92,9.36-21.08A14.9,14.9,0,0,0,113.89,8.7c-3.67-3.17-7.48-4.57-11.32-4.18C95.36,5.25,90.1,12,90.05,12.06L88.4,14.21l-1.68-2.13c-.05-.07-5.63-7-13-7.75A12.72,12.72,0,0,0,72.39,4.26ZM111.6,42Z"/>
    <path class="cls-16"
          d="M79,47a2.1,2.1,0,0,1-1.3-.45,78.72,78.72,0,0,1-7.85-6.93q-.78-.8-1.47-1.6a2.11,2.11,0,1,1,3.19-2.77c.41.47.85,1,1.31,1.43a74.58,74.58,0,0,0,7.42,6.55A2.11,2.11,0,0,1,79,47Z"/>
    <path class="cls-17"
          d="M106.49,34a2.11,2.11,0,0,1-1.59-3.5,16,16,0,0,0,2.27-3.34,17.66,17.66,0,0,0,2.22-8.32,2.11,2.11,0,1,1,4.22,0h0A21.86,21.86,0,0,1,111,29.06a20.19,20.19,0,0,1-2.87,4.23A2.11,2.11,0,0,1,106.49,34Z"/>
    <path class="cls-18"
          d="M107.21,13.58a2.1,2.1,0,0,1-1.33-.47,14.57,14.57,0,0,0-2.45-1.59,2.11,2.11,0,0,1,1.93-3.75,18.78,18.78,0,0,1,3.17,2.09,2.11,2.11,0,0,1-1.33,3.75Z"/>
    <path class="cls-19"
          d="M80.12,15.52a2.11,2.11,0,0,1-1.49-.62,10.33,10.33,0,0,0-5-2.47,2.11,2.11,0,0,1,.7-4.17,14.53,14.53,0,0,1,7.26,3.65,2.11,2.11,0,0,1-1.47,3.61Z"/>
</svg>