<svg id="Layer_1" data-name="Layer 1" xmlns="http://www.w3.org/2000/svg" xmlns:xlink="http://www.w3.org/1999/xlink" viewBox="0 0 183.52 182.92"><defs><style>.cls-1{fill:url(#linear-gradient);}.cls-2{fill:url(#linear-gradient-2);}.cls-3{fill:url(#linear-gradient-3);}.cls-4{fill:url(#linear-gradient-4);}.cls-5{fill:url(#linear-gradient-5);}.cls-6{fill:url(#linear-gradient-6);}.cls-7{fill:url(#linear-gradient-7);}</style><linearGradient id="linear-gradient" x1="151.84" y1="180.25" x2="1.84" y2="17.75" gradientTransform="matrix(1, 0, 0, -1, 0, 184.34)" gradientUnits="userSpaceOnUse"><stop offset="0" stop-color="#d9314a"/><stop offset="1" stop-color="#3b4864"/></linearGradient><linearGradient id="linear-gradient-2" x1="159.08" y1="173.57" x2="9.08" y2="11.07" xlink:href="#linear-gradient"/><linearGradient id="linear-gradient-3" x1="170.95" y1="162.61" x2="20.95" y2="0.11" xlink:href="#linear-gradient"/><linearGradient id="linear-gradient-4" x1="139.58" y1="191.57" x2="-10.42" y2="29.07" xlink:href="#linear-gradient"/><linearGradient id="linear-gradient-5" x1="189.38" y1="145.6" x2="39.38" y2="-16.9" xlink:href="#linear-gradient"/><linearGradient id="linear-gradient-6" x1="163.37" y1="169.6" x2="13.37" y2="7.1" xlink:href="#linear-gradient"/><linearGradient id="linear-gradient-7" x1="162.96" y1="169.99" x2="12.96" y2="7.49" xlink:href="#linear-gradient"/></defs><title>Recommended</title><path class="cls-1" d="M72,126.17H58a6.56,6.56,0,0,1-6.55-6.55v-43A6.56,6.56,0,0,1,58,70.07H72a6.56,6.56,0,0,1,6.55,6.55v6.25a2,2,0,0,1-4,0V76.6A2.56,2.56,0,0,0,72,74H58a2.56,2.56,0,0,0-2.55,2.55v43A2.56,2.56,0,0,0,58,122.17h14a2.56,2.56,0,0,0,2.55-2.55v-27a2,2,0,0,1,4,0v27A6.56,6.56,0,0,1,72,126.17Z"/><circle class="cls-2" cx="65.38" cy="112.28" r="2.64"/><path class="cls-3" d="M122.49,123.52H77.25a2,2,0,0,1,0-4h45.23a3.6,3.6,0,0,0,3.55-3.29c.07-2.17-2-3.23-5.16-4.15l-.73-.22a2.15,2.15,0,0,1,.59-4.2h1c5.08,0,6.89-.86,6.89-3.28s-1.73-3.38-4.92-4.14c-.42-.1-.78-.19-1.05-.27a2.13,2.13,0,0,1,.57-4.17h1c1.74,0,5,0,6.39-1.34a2.5,2.5,0,0,0,.68-1.95c0-2-1.18-2.59-4.51-3.09a13.06,13.06,0,0,1-2.17-.45,2.22,2.22,0,0,1,.62-4.32c.83,0,8-.4,8-4.67,0-2.85-2.25-4.6-3.48-4.6H107.37a2.47,2.47,0,0,1-1.83-4.13c1.92-2.13,6.56-7.77,8-14.15.61-2.66.62-6.34-.81-8.13a3.78,3.78,0,0,0-3.18-1.29c-4.51,0-5,1.57-6.24,5.38a22.78,22.78,0,0,1-4.79,9.11C96.87,64,93.4,65.33,90,66.64a38.29,38.29,0,0,0-3.83,1.63c-3.67,2-8.06,7-8.1,7.06a2,2,0,0,1-3-2.63c.2-.23,4.9-5.57,9.18-7.93a39.26,39.26,0,0,1,4.32-1.85c2.52-1,6-2.32,7-3.44a18.88,18.88,0,0,0,4-7.67c1.29-4,2.62-8.15,10-8.15a7.66,7.66,0,0,1,6.31,2.8c3.13,3.93,1.86,10.29,1.58,11.52-1.25,5.42-4.41,10.27-6.83,13.38h19.19c3.53,0,7.48,3.68,7.48,8.6,0,3.45-2,5.71-4.82,7.05a6,6,0,0,1,2.84,5.48,6.49,6.49,0,0,1-1.85,4.78,7.61,7.61,0,0,1-3,1.77,7,7,0,0,1,2.19,5.33c0,4-2.38,5.79-5,6.61a6.55,6.55,0,0,1,2.38,5.39A7.63,7.63,0,0,1,122.49,123.52Zm-1.09-15.46Zm2.5-11.89ZM108.5,73.95Z"/><path class="cls-4" d="M48.83,137.91a2,2,0,0,1-1.38-.56,64,64,0,0,1,76.86-101.3,2,2,0,1,1-2,3.44,60,60,0,0,0-72.05,95,2,2,0,0,1-1.38,3.44Z"/><path class="cls-5" d="M91.76,155.17a63.75,63.75,0,0,1-35-10.39,2,2,0,1,1,2.19-3.35h0a60,60,0,0,0,83-83.07,2,2,0,0,1,3.42-2.19,64,64,0,0,1-53.61,99Z"/><path class="cls-6" d="M139,53a2,2,0,0,1-1.52-.7,60.43,60.43,0,0,0-9.58-9,2,2,0,0,1,2.41-3.19,64.49,64.49,0,0,1,10.21,9.65A2,2,0,0,1,139,53.1Z"/><path class="cls-7" d="M84.33,182.92,72.12,169.25l-17.24,6.24-7.2-17.2-1.43-.94-18.59-.18-.59-16.23-15.5-4.83,3.89-15-13-8.47L9.09,101.3,0,91.75,12.15,78.92A5.69,5.69,0,0,1,12.3,78L4.87,62l15.89-8.35v-.09l-1.94-17.8,18-2.86,4-17.79,18.12,3.16L68.6,2.67l16.19,9L99.19,0,111.4,13.67l17.24-6.24,7.58,18.13,19.65.24L156.46,42,172,46.86l-3.89,15,13,8.47-6.63,11.34,9.08,9.5L171,104.42,178.64,121l-15.88,8.33,2,17.86-18,2.86-4,17.79-18.08-3.16L115,180.25l-16.19-9Zm-11-18.36,11.43,12.86,13.53-10.94,15.22,8.43,9.09-14.67,17,3,3.77-16.72,16.92-2.69L158.46,127l15-7.83-7.2-15.55L178,91.17l-8.54-8.91,6.23-10.65-12.21-8,3.66-14.11L152.56,45,152,29.76l-18.46-.23-7.13-17-16.2,5.87L98.76,5.51,85.22,16.44,70,8,61.37,21.94l-1.27.55-.68-.07-15.5-2.71L40.44,35.17l-1.68,1.47L23.23,39.11,24.9,54.38l-.31.56L24,56.08l-.29.54L10.1,63.73l6.35,13.72-.11.62q-.18,1-.34,2.06l-.09.62-10.39,11,8.54,8.91L7.83,111.3l12.21,8-3.65,14.07L31,137.91l.56,15.26,16,.2.5.34q1.15.79,2.34,1.54l.53.34,6.21,14.85Z"/></svg>