<svg height="512" fill="#23AFE8" viewBox="0 0 64 64" width="512" xmlns="http://www.w3.org/2000/svg"><path d="m44 60h6v2h-6z"/><path d="m48 52h-2v2h-2v2h2v2h2v-2h2v-2h-2z"/><path d="m34 56h-22a1 1 0 0 0 0 2h22a1 1 0 0 0 0-2z"/><path d="m18 31h2v2h-2z"/><path d="m18.75 36.694h2v2h-2z" transform="matrix(.966 -.259 .259 .966 -9.083 6.396)"/><path d="m20.948 42h2v2h-2z" transform="matrix(.866 -.5 .5 .866 -18.56 16.736)"/><path d="m24.443 46.557h2v2h-2z" transform="matrix(.707 -.707 .707 .707 -26.175 31.92)"/><path d="m29 50.052h2v2h-2z" transform="matrix(.5 -.866 .866 .5 -29.213 51.512)"/><path d="m18.75 25.306h2v2h-2z" transform="matrix(.259 -.966 .966 .259 -10.772 38.574)"/><path d="m20.947 20h2v2h-2z" transform="matrix(.5 -.866 .866 .5 -7.213 29.506)"/><path d="m24.444 15.443h2v2h-2z" transform="matrix(.707 -.707 .707 .707 -4.175 22.808)"/><path d="m29 11.948h2v2h-2z" transform="matrix(.866 -.5 .5 .866 -2.454 16.736)"/><path d="m51 12a1 1 0 0 1 1 1 1 1 0 0 0 2 0 3 3 0 0 0 -3-3 1 1 0 0 0 0 2z"/><path d="m51 2a1 1 0 0 0 0 2 9.011 9.011 0 0 1 9 9 1 1 0 0 0 2 0 11.013 11.013 0 0 0 -11-11z"/><path d="m51 8a5.006 5.006 0 0 1 5 5 1 1 0 0 0 2 0 7.008 7.008 0 0 0 -7-7 1 1 0 0 0 0 2z"/><path d="m31 22a3 3 0 0 0 -3 3v14a3 3 0 0 0 3 3h20a3 3 0 0 0 3-3v-14a3 3 0 0 0 -3-3zm21 17a1 1 0 0 1 -1 1h-20a1 1 0 0 1 -1-1v-11h22zm0-14v1h-22v-1a1 1 0 0 1 1-1h20a1 1 0 0 1 1 1z"/><path d="m36.4 37.8a1 1 0 1 0 1.2-1.6l-2.933-2.2 2.933-2.2a1 1 0 1 0 -1.2-1.6l-4 3a1 1 0 0 0 0 1.6z"/><path d="m44.2 37.6a1 1 0 0 0 1.4.2l4-3a1 1 0 0 0 0-1.6l-4-3a1 1 0 0 0 -1.2 1.6l2.933 2.2-2.933 2.2a1 1 0 0 0 -.2 1.4z"/><path d="m39.757 38.97a.976.976 0 0 0 .243.03 1 1 0 0 0 .969-.757l2-8a1 1 0 0 0 -1.94-.486l-2 8a1 1 0 0 0 .728 1.213z"/><path d="m42 13.051v-6.051a5.006 5.006 0 0 0 -5-5h-28a5.006 5.006 0 0 0 -5 5v50a5.006 5.006 0 0 0 5 5h28a5.006 5.006 0 0 0 5-5v-6.051a18.974 18.974 0 0 0 0-37.9zm-29-9.051h20v3a1 1 0 0 1 -1 1h-18a1 1 0 0 1 -1-1zm24 56h-28a3 3 0 0 1 -3-3v-50a3 3 0 0 1 3-3h2v3a3 3 0 0 0 3 3h18a3 3 0 0 0 3-3v-3h2a3 3 0 0 1 3 3v6.051a18.974 18.974 0 0 0 0 37.9v6.049a3 3 0 0 1 -3 3zm4-11a17 17 0 1 1 17-17 17.019 17.019 0 0 1 -17 17z"/></svg>
