<svg id="Layer_1" data-name="Layer 1" xmlns="http://www.w3.org/2000/svg" xmlns:xlink="http://www.w3.org/1999/xlink" viewBox="0 0 180 180"><defs><style>.cls-1{fill:url(#linear-gradient);}.cls-2{fill:url(#linear-gradient-2);}.cls-3{fill:url(#linear-gradient-3);}.cls-4{fill:url(#linear-gradient-4);}.cls-5{fill:url(#linear-gradient-5);}.cls-6{fill:url(#linear-gradient-6);}.cls-7{fill:url(#linear-gradient-7);}.cls-8{fill:url(#linear-gradient-8);}.cls-9{fill:url(#linear-gradient-9);}.cls-10{fill:url(#linear-gradient-10);}.cls-11{fill:url(#linear-gradient-11);}.cls-12{fill:url(#linear-gradient-12);}.cls-13{fill:url(#linear-gradient-13);}.cls-14{fill:url(#linear-gradient-14);}.cls-15{fill:url(#linear-gradient-15);}.cls-16{fill:url(#linear-gradient-16);}</style><linearGradient id="linear-gradient" x1="163.26" y1="164.37" x2="14.59" y2="-1.97" gradientTransform="matrix(1, 0, 0, -1, 0, 181.28)" gradientUnits="userSpaceOnUse"><stop offset="0" stop-color="#d9314a"/><stop offset="1" stop-color="#3b4864"/></linearGradient><linearGradient id="linear-gradient-2" x1="122.45" y1="200.83" x2="-26.22" y2="34.5" xlink:href="#linear-gradient"/><linearGradient id="linear-gradient-3" x1="137.57" y1="187.32" x2="-11.1" y2="20.99" xlink:href="#linear-gradient"/><linearGradient id="linear-gradient-4" x1="188.29" y1="141.99" x2="39.62" y2="-24.34" xlink:href="#linear-gradient"/><linearGradient id="linear-gradient-5" x1="207.93" y1="124.43" x2="59.27" y2="-41.9" xlink:href="#linear-gradient"/><linearGradient id="linear-gradient-6" x1="114.62" y1="207.84" x2="-34.05" y2="41.51" xlink:href="#linear-gradient"/><linearGradient id="linear-gradient-7" x1="189.65" y1="140.77" x2="40.99" y2="-25.56" xlink:href="#linear-gradient"/><linearGradient id="linear-gradient-8" x1="121.24" y1="201.92" x2="-27.43" y2="35.59" xlink:href="#linear-gradient"/><linearGradient id="linear-gradient-9" x1="148.89" y1="177.2" x2="0.23" y2="10.87" xlink:href="#linear-gradient"/><linearGradient id="linear-gradient-10" x1="147.59" y1="178.36" x2="-1.07" y2="12.03" xlink:href="#linear-gradient"/><linearGradient id="linear-gradient-11" x1="129.29" y1="194.73" x2="-19.38" y2="28.39" xlink:href="#linear-gradient"/><linearGradient id="linear-gradient-12" x1="144.5" y1="181.13" x2="-4.17" y2="14.8" xlink:href="#linear-gradient"/><linearGradient id="linear-gradient-13" x1="162.53" y1="165.01" x2="13.86" y2="-1.32" xlink:href="#linear-gradient"/><linearGradient id="linear-gradient-14" x1="171.69" y1="156.82" x2="23.03" y2="-9.51" xlink:href="#linear-gradient"/><linearGradient id="linear-gradient-15" x1="151.58" y1="174.8" x2="2.91" y2="8.47" xlink:href="#linear-gradient"/><linearGradient id="linear-gradient-16" x1="221.95" y1="111.9" x2="73.29" y2="-54.43" xlink:href="#linear-gradient"/></defs><title>technical</title><path class="cls-1" d="M123.32,163.73H35.49a7.61,7.61,0,0,1-7.6-7.6v-75a51.51,51.51,0,0,1,103,0v75A7.61,7.61,0,0,1,123.32,163.73ZM79.4,33.57A47.57,47.57,0,0,0,31.89,81.08v75a3.61,3.61,0,0,0,3.6,3.6h87.83a3.61,3.61,0,0,0,3.6-3.6v-75A47.57,47.57,0,0,0,79.4,33.57Z"/><path class="cls-2" d="M31.89,109.63H15.08a14.76,14.76,0,0,1,0-29.52h16.8ZM15.08,84.1a10.76,10.76,0,0,0,0,21.52h12.8V84.1Z"/><path class="cls-3" d="M16.11,152.52a2,2,0,0,1-2-2V109.17a2,2,0,0,1,4,0v41.35a2,2,0,0,1-2,2Z"/><path class="cls-4" d="M143.72,109.63h-16.8V80.1h16.8a14.76,14.76,0,0,1,0,29.52Zm-12.8-4h12.8a10.76,10.76,0,0,0,0-21.52h-12.8Z"/><path class="cls-5" d="M142.69,152.52a2,2,0,0,1-2-2V109.17a2,2,0,1,1,4,0v41.35a2,2,0,0,1-2,2Z"/><path class="cls-6" d="M80.42,23.4a11.7,11.7,0,1,1,11.7-11.7h0A11.71,11.71,0,0,1,80.42,23.4Zm0-19.4a7.7,7.7,0,1,0,7.7,7.7h0A7.71,7.71,0,0,0,80.42,4Z"/><path class="cls-7" d="M80.17,180.07a30.16,30.16,0,0,1-27.23-17,2,2,0,1,1,3.59-1.77,26.34,26.34,0,0,0,47.22.12,2,2,0,1,1,3.58,1.79A30.18,30.18,0,0,1,80.17,180.07Z"/><path class="cls-8" d="M79.91,31.79a2,2,0,0,1-2-2V21.4a2,2,0,0,1,4,0v8.39A2,2,0,0,1,79.91,31.79Z"/><path class="cls-9" d="M127.89,84.28H30.11a2,2,0,0,1,0-4h97.78a2,2,0,0,1,0,4Z"/><circle class="cls-10" cx="95.98" cy="60.67" r="4.12"/><circle class="cls-11" cx="63.04" cy="60.67" r="4.12"/><path class="cls-12" d="M78.48,95.6h-35a2,2,0,0,1,0-4h35a2,2,0,0,1,0,4Z"/><path class="cls-13" d="M97,95.6H89.8a2,2,0,0,1,0-4H97a2,2,0,0,1,0,4Z"/><path class="cls-14" d="M112.45,95.6h-5.13a2,2,0,0,1,0-4h5.15a2,2,0,0,1,0,4Z"/><path class="cls-15" d="M16.21,166.62a8.69,8.69,0,1,1,8.69-8.69A8.69,8.69,0,0,1,16.21,166.62Zm0-13.38a4.69,4.69,0,1,0,4.69,4.69,4.69,4.69,0,0,0-4.69-4.69Z"/><path class="cls-16" d="M142.81,166.62a8.69,8.69,0,1,1,8.69-8.69A8.69,8.69,0,0,1,142.81,166.62Zm0-13.38a4.69,4.69,0,1,0,4.69,4.69,4.69,4.69,0,0,0-4.69-4.69Z"/></svg>